<?xml version="1.0" encoding="UTF-8" standalone="no"?>
<!-- Created with Inkscape (http://www.inkscape.org/) -->

<svg
   width="160"
   height="160"
   viewBox="0 0 42.333332 42.333333"
   version="1.1"
   id="svg1"
   inkscape:version="1.4.2 (f4327f4, 2025-05-13)"
   sodipodi:docname="logo.svg"
   xmlns:inkscape="http://www.inkscape.org/namespaces/inkscape"
   xmlns:sodipodi="http://sodipodi.sourceforge.net/DTD/sodipodi-0.dtd"
   xmlns:xlink="http://www.w3.org/1999/xlink"
   xmlns="http://www.w3.org/2000/svg"
   xmlns:svg="http://www.w3.org/2000/svg">
  <sodipodi:namedview
     id="namedview1"
     pagecolor="#ffffff"
     bordercolor="#000000"
     borderopacity="0.25"
     inkscape:showpageshadow="2"
     inkscape:pageopacity="0.0"
     inkscape:pagecheckerboard="0"
     inkscape:deskcolor="#d1d1d1"
     inkscape:document-units="mm"
     inkscape:zoom="1.0396254"
     inkscape:cx="15.390158"
     inkscape:cy="176.50588"
     inkscape:window-width="933"
     inkscape:window-height="1211"
     inkscape:window-x="1265"
     inkscape:window-y="0"
     inkscape:window-maximized="0"
     inkscape:current-layer="layer1" />
  <defs
     id="defs1">
    <color-profile
       name="sRGB-IEC61966-2.1"
       xlink:href="../../../../../../WINDOWS/system32/spool/drivers/color/sRGB%20Color%20Space%20Profile.icm"
       id="color-profile2" />
    <color-profile
       name="Agfa-:-Swop-Standard"
       xlink:href="../../../../../../WINDOWS/system32/spool/drivers/color/RSWOP.icm"
       id="color-profile3" />
  </defs>
  <g
     inkscape:label="Layer 1"
     inkscape:groupmode="layer"
     id="layer1">
    <path
       style="display:inline;fill:#0a0a0a;stroke:none;stroke-width:0.242696"
       d="m 17.367763,1.3757897 c -0.679665,0.087171 -0.385489,1.8878711 -0.249581,2.3014903 0.408907,1.2444219 0.91346,2.234732 0.438082,3.5724891 -0.338136,0.9515459 -1.488849,1.5276165 -1.326447,2.6405336 0.121892,0.8352883 1.03606,1.2523833 1.174879,2.0192323 0.04638,0.256221 -0.126469,0.460858 -0.182203,0.697813 -0.03767,0.160149 -0.0049,0.411528 0.220642,0.379395 0.331889,-0.04726 0.513933,-0.645378 0.533135,-0.921886 0.06822,-0.982138 -1.223292,-1.455538 -1.190268,-2.4075433 0.02321,-0.6687567 0.838974,-1.1399798 1.123572,-1.7085796 0.627706,-1.2540991 0.4913,-2.7959239 -0.04983,-4.0384643 -0.337473,-0.7749199 -0.301776,-1.3618829 -0.230807,-2.1720614 0.01502,-0.171146 -0.04202,-0.3905268 -0.261174,-0.3624187 m 5.624596,2.005446 c -0.267927,0.1720403 -0.02759,0.5644655 0.238183,0.3739439 0.260297,-0.1866028 0.03961,-0.5523122 -0.238183,-0.3739439 m 3.773464,2.0822868 c -0.324126,-0.2058014 -1.5022,-1.3178035 -1.885526,-1.067851 -0.23498,0.1532209 -0.03388,0.4944505 0.116057,0.6196862 0.459201,0.3835114 1.181195,0.8723471 1.769462,0.9918076 -0.07339,0.2673075 -0.157193,1.0142669 -0.482469,1.07768 -0.689786,0.1344787 -0.53525,-0.7356707 -0.771627,-1.0210926 -0.239233,-0.2888642 -0.474167,0.1191772 -0.502832,0.3328636 -0.145202,1.0824133 1.082957,0.9109636 1.390569,1.5744171 0.155886,0.3362132 0.07221,0.8503432 0.150273,1.2203043 0.243755,1.1553483 0.494834,2.4387743 -0.0571,3.5716793 -0.197469,0.405322 -0.64128,0.657422 -0.969419,0.947462 -0.558104,0.493308 -1.028627,1.123687 -1.630916,1.559656 -0.445608,0.322555 -0.900766,0.141599 -1.397926,0.06745 -1.029478,-0.153526 -2.066838,-0.31742 -3.106513,-0.390291 -3.309591,-0.231966 -6.785547,0.06019 -9.9408355,1.130357 -1.0373805,0.351838 -2.8491238,1.113087 -3.1589501,2.277895 -0.230294,0.86578 0.9098583,2.356392 1.2173813,3.184174 -2.5076124,-0.687314 -4.5157329,1.625768 -4.3401448,4.03846 0.076756,1.054697 0.4700715,2.116538 0.9923181,3.028846 0.239558,0.418478 0.608524,0.796063 0.7902121,1.242604 0.1662862,0.4087 0.1694502,0.893858 0.2871305,1.320271 0.2722053,0.986349 0.681108,1.926959 1.2208614,2.795857 0.4373653,0.704069 1.3079194,1.297803 1.6581044,2.004451 0.1502889,0.303278 -0.2333315,0.767259 -0.3653423,1.0244 -0.3783857,0.73704 -1.1595872,1.994114 -0.4377743,2.772746 0.3813641,0.411383 0.9801727,0.237454 1.3572002,-0.07985 0.5943038,-0.500166 1.417357,-1.849162 1.555632,-2.615234 l 0.931955,1.009616 c -0.6944,0.294633 -1.5271361,0.67112 -1.9582491,1.320526 -0.6594881,0.993417 0.1050354,2.250749 1.1816211,2.445628 1.326574,0.240132 2.261152,-1.111992 3.479571,-1.296837 0.544495,-0.08261 1.078318,0.668187 1.723834,0.618957 0.762652,-0.05816 1.486794,-0.948944 2.174554,-0.902261 0.30171,0.02046 0.567398,0.297399 0.854291,0.388945 0.676064,0.215723 1.647167,0.09412 2.17456,-0.400403 h 0.07766 c 0.97285,1.054888 3.971859,2.675473 4.920878,0.77657 0.228649,-0.45751 0.204855,-0.979329 0.204863,-1.475535 0.538257,0.458539 1.429743,0.740256 1.719046,-0.155599 0.27119,-0.839746 -0.274879,-1.692337 -0.641918,-2.407273 -0.129067,-0.251425 -0.472797,-0.670376 -0.390437,-0.971428 0.07157,-0.26166 0.440633,-0.470371 0.618061,-0.661611 0.453999,-0.48934 0.868522,-1.051262 1.202227,-1.628802 0.730374,-1.264017 0.841515,-2.58201 1.370907,-3.883138 0.181685,-0.446541 0.550647,-0.824126 0.790208,-1.242603 0.513929,-0.897776 0.882607,-1.918634 0.985777,-2.951184 0.243395,-2.436044 -1.80847,-4.808242 -4.333607,-4.116122 0.34211,-0.80928 1.261886,-2.086486 1.252023,-2.951184 -0.0062,-0.544263 -0.449813,-1.000831 -0.863964,-1.292167 -0.901986,-0.634497 -2.005931,-1.248772 -3.106252,-1.426035 1.098692,-1.374423 2.627106,0.503078 3.572489,1.041608 0.356559,0.203114 0.76107,0.266915 1.164939,0.278664 -0.07651,0.883298 0.312773,1.319165 0.670808,2.096561 0.07728,0.167802 0.483608,0.768572 0.665938,0.355488 0.305385,-0.691864 -0.908841,-1.504212 -0.715443,-2.296724 0.334526,0.189595 0.866649,0.421484 1.033677,0.787703 0.194491,0.426431 0.08345,1.41921 0.546233,1.678016 0.223743,0.125129 0.334872,-0.105901 0.327991,-0.294421 -0.01578,-0.432221 -0.193838,-0.891388 -0.276984,-1.317009 0.50462,0.198853 0.353855,0.559302 0.460224,1.009614 0.105057,0.44473 0.374092,1.080139 0.653519,1.443242 0.167625,0.217819 0.46792,0.160683 0.482779,-0.130837 0.01499,-0.29428 -0.174369,-0.59885 -0.309835,-0.846418 -0.167459,-0.306039 -0.29755,-0.586505 -0.354734,-0.931955 0.642525,0.683495 1.501197,0.504834 2.329882,0.684735 0.311067,0.06752 0.548679,0.305944 0.851048,0.390177 0.214268,0.0597 0.403393,-0.05465 0.327987,-0.29616 -0.260364,-0.833901 -1.367908,-0.541764 -1.955664,-0.705807 -0.519348,-0.144948 -0.905019,-0.530441 -1.320262,-0.849575 0.3789,-0.06486 0.710022,0.05639 1.087278,0.07273 0.342182,0.01482 0.821858,0.0062 1.147843,-0.104478 0.299351,-0.101676 0.181518,-0.405554 -0.0685,-0.479821 -0.32303,-0.09595 -0.674401,0.04024 -1.001683,0.03202 -0.983437,-0.02476 -1.872262,0.06015 -2.795859,-0.297065 v -0.07766 c 0.583622,0.07618 1.124163,0.03134 1.70071,-0.09359 0.280706,-0.06082 0.385056,-0.377303 0.0687,-0.487247 -0.380866,-0.132351 -0.770448,0.06895 -1.148105,0.0886 -0.89565,0.04656 -1.856274,0.140308 -2.718196,-0.20672 0.683343,-0.252708 1.418006,-0.297965 2.096566,-0.558952 0.195339,-0.07513 0.749958,-0.34704 0.355487,-0.589812 -0.252807,-0.155582 -0.649118,0.06181 -0.898796,0.135078 -0.460126,0.135015 -0.94359,0.19002 -1.397931,0.344669 -0.242853,0.08267 -0.516099,0.300664 -0.776629,0.298254 -0.361975,-0.0034 -0.724326,-0.465114 -1.009614,-0.656303 -0.508606,-0.340862 -1.095924,-0.570456 -1.708578,-0.603855 0.520381,-0.714442 1.611752,-1.917029 2.485208,-2.163645 0.842386,-0.23784 1.72603,0.298888 2.562867,0.298107 1.441983,-0.0013 3.095274,-1.633337 3.65015,-2.871891 h 0.07766 c 0.04911,0.261288 0.08385,0.52981 0.187193,0.776629 0.120345,0.287438 0.313623,0.687727 0.599628,0.841526 0.153939,0.08278 0.449835,0.08948 0.452796,-0.150432 0.0053,-0.422344 -0.5859,-1.064274 -0.688039,-1.5453139 -0.04672,-0.2199923 -0.08048,-0.545317 0.223063,-0.5909152 0.250395,-0.03763 0.329358,0.2568832 0.396838,0.4359057 0.171542,0.4550744 0.355129,1.1332204 0.641839,1.5205164 0.396583,0.535716 0.470848,-0.325473 0.392331,-0.58895 -0.04795,-0.160943 -0.106678,-0.315148 -0.180594,-0.465982 -0.127542,-0.26025 -0.259263,-0.5202099 -0.394141,-0.7766298 h 0.854291 c 9.7e-5,0.7922678 0.176015,1.0748338 0.772027,1.5991128 0.140244,0.123375 0.74922,0.752123 0.849304,0.247704 0.122945,-0.619614 -1.061164,-1.026217 -1.077692,-1.7691573 1.129319,0.00295 1.077136,0.7711323 1.868512,1.2514243 0.692541,0.42031 0.227801,-0.57904 0.115786,-0.785027 C 39.3706,9.8677332 39.284212,9.6828092 39.191851,9.5020062 39.455691,9.501842 39.793853,9.5469222 40.029045,9.4022242 40.57712,9.0650296 39.892004,8.8099726 39.580182,8.8030332 39.699842,8.6398981 39.81885,8.4978052 39.968334,8.3601753 40.243202,8.1071094 40.424717,7.467824 39.812831,7.7411304 39.090971,8.0635658 38.816075,8.7976966 37.949254,8.8806964 38.142214,8.717363 39.432087,7.474405 38.700837,7.2445916 38.50357,7.1825996 38.382552,7.431224 38.30399,7.5636227 37.992946,8.0878098 37.283201,8.3360622 37.094967,8.8806964 L 36.70665,8.8030333 c 0.161903,-0.4344757 0.522584,-0.5901944 0.769677,-0.9518117 0.115834,-0.1695303 0.231454,-0.6983831 -0.147339,-0.6066889 -0.576968,0.1396637 -0.852933,0.9396242 -1.278347,1.2695434 -0.288839,0.224 -0.945637,0.115545 -1.28556,0.055967 0.09005,-0.2078558 0.660841,-1.4115519 0.145536,-1.4115519 -0.372432,0 -0.533214,0.751372 -0.606364,1.0232399 -0.07645,0.2841479 0.02366,0.5824828 -0.05906,0.8542874 -0.221641,0.7282586 -1.179616,1.6575435 -1.732587,2.1590465 -0.350856,0.318196 -0.773768,0.697809 -1.242346,0.821624 -0.515139,0.136115 -0.975102,-0.08713 -1.475594,-0.15895 -0.765167,-0.109809 -1.557939,-0.10352 -2.329877,-0.10352 L 27.231804,8.9583566 c 0.636594,-0.091887 1.023112,-0.2889402 1.48508,-0.7344094 0.140882,-0.1358579 0.389429,-0.3257764 0.301074,-0.5551255 -0.09059,-0.2351455 -0.394855,-0.1035025 -0.541711,-0.013632 -0.286148,0.1750904 -1.036153,1.1019198 -1.333362,0.4345641 -0.108643,-0.243941 -0.05252,-0.747938 0.143816,-0.9395904 0.190538,-0.1859954 0.555339,-0.1445698 0.799391,-0.198672 0.401102,-0.088919 0.88615,-0.2967278 1.234744,-0.5153027 0.18543,-0.1162722 0.500991,-0.6630613 0.06873,-0.6766955 -0.281778,-0.0089 -0.665022,0.2918806 -0.915174,0.4128934 -0.359432,0.1738797 -0.687668,0.2789888 -1.087278,0.3007734 0.09865,-0.3549225 0.07406,-0.9321491 0.342669,-1.1979718 0.28962,-0.28662 1.057384,-0.323279 1.122857,-0.8112119 0.07867,-0.5863597 -1.418995,0.1979252 -1.620851,0.3006045 -0.07986,-0.2970736 -0.09034,-0.8144308 -0.298509,-1.0443833 -0.440812,-0.4869498 -0.571602,0.3809298 -0.545785,0.6560669 0.0367,0.3909867 0.263451,0.7185856 0.378314,1.0872816 M 14.923893,3.8500079 C 14.175132,4.2947472 15.27792,6.4094365 16.07493,5.8393602 16.788752,5.3287865 16.10028,4.4406242 15.65999,4.1161807 15.471536,3.9773024 15.177616,3.6993049 14.923893,3.8500079 M 11.468688,4.2922963 C 10.901699,4.4842017 11.093445,5.457262 11.693818,5.2393789 12.250649,5.0372982 12.0759,4.0867776 11.468688,4.2922963 m 8.192635,0.01793 c -0.542872,0.3802289 0.168521,1.2327319 0.712988,0.897915 C 20.987027,4.8313584 20.218553,3.9199309 19.661323,4.3102258 M 9.1695176,6.8121932 c -0.2873083,0.1323272 -0.029028,0.5183908 0.085231,0.6705703 0.3960868,0.5274562 0.9175154,0.9504279 1.3114974,1.4755935 0.635978,0.8477394 -0.33375,1.279009 -0.196943,2.096832 0.135179,0.808132 1.36622,1.038406 1.945902,1.40673 0.218667,0.138942 0.388556,0.877727 0.675543,0.739497 0.408194,-0.196613 0.0941,-0.89031 -0.138705,-1.082228 C 12.352442,11.707337 11.404448,11.64632 11.067889,11.044174 10.853916,10.661363 11.420453,9.9077385 11.378356,9.424332 11.310218,8.6419579 10.597151,8.1190534 10.126919,7.5604263 9.9491408,7.3492295 9.5200946,6.6507283 9.1695176,6.8121928 M 21.407096,7.3320727 c -0.851014,0.1829791 -0.943939,0.9427755 -0.56749,1.5485489 0.1519,0.2444477 0.363946,0.6622807 0.718809,0.5578043 C 21.918303,9.3324702 22.50273,8.5631978 22.441757,8.1819854 22.384119,7.8216339 21.793262,7.2490392 21.407096,7.3320727 m 2.05098,0.3255023 c -0.360848,0.2162084 0.143243,1.0766845 -0.05415,1.4506198 -0.239765,0.4542142 -0.859143,0.497973 -1.11052,0.9472182 -0.339222,0.606233 0.26761,1.23053 0.179344,1.854126 -0.121126,0.855752 -0.856767,0.638252 -1.201505,1.139473 -0.279572,0.406478 0.682386,0.313831 0.834794,0.251577 0.757157,-0.309265 1.026481,-1.186076 0.893509,-1.934688 -0.04952,-0.278761 -0.268709,-0.646027 -0.162776,-0.926467 0.226231,-0.5989305 1.07935,-0.5722231 1.192347,-1.3257509 0.03843,-0.2563266 -0.03809,-1.7754387 -0.571047,-1.4561081 M 8.3804357,8.5700699 C 7.1803338,8.9464097 7.9190585,11.190659 9.0385317,10.763367 10.076625,10.367133 9.3594143,8.26307 8.3804357,8.5700699 m 5.7554553,0.8588937 c -0.274538,0.086958 -0.09082,0.5080766 0.173981,0.3978462 0.249911,-0.1040353 0.06604,-0.4738727 -0.173981,-0.3978462 m 6.216786,1.4904344 c -0.28935,0.16392 -0.18681,0.74081 0.145825,0.509304 0.222679,-0.154984 0.188488,-0.698695 -0.145825,-0.509304 m 4.533941,0.853153 c -0.162802,0.123034 0.05289,0.348717 0.211728,0.265067 0.210407,-0.110803 -0.03758,-0.396656 -0.211728,-0.265067 M 8.5269708,13.06817 c -0.5002426,0.181645 -0.2000177,0.900585 0.2866159,0.714096 0.4895058,-0.18759 0.1882647,-0.88653 -0.2866159,-0.714096 m 12.6471362,4.510754 -1.009615,1.009618 c 0.421854,0.07716 0.903611,0.274297 1.320263,0.06604 0.368544,-0.184211 0.587192,-0.643263 1.009624,-0.723816 0.347754,-0.06631 0.760172,0.139494 1.087272,0.235895 0.969588,0.28576 2.055325,0.633791 2.795864,1.353835 -1.981358,1.030731 -4.43072,0.931955 -6.601338,0.931955 -3.895314,0 -7.756912,0.295804 -11.4940881,-0.931955 0.3294973,-0.966771 2.1516951,-1.339288 3.0288511,-1.586072 3.309446,-0.931105 6.516914,-0.450811 9.863167,-0.355497 m -4.246085,0.431958 c -0.307315,0.109552 -0.07908,0.572733 0.03547,0.730819 0.277877,0.383405 1.237287,1.1596 1.770693,0.946411 0.216131,-0.08639 0.147308,-0.33885 0,-0.451751 -0.416201,-0.31898 -0.893648,-0.394584 -1.274399,-0.804984 -0.114766,-0.123711 -0.316827,-0.49712 -0.531794,-0.420495 m 2.178103,-0.01531 c -0.370333,0.177994 -0.02084,0.716118 0.144899,0.898076 0.318192,0.349333 1.690208,1.263279 2.187515,0.921456 0.211859,-0.145617 0.04006,-0.37003 -0.122147,-0.457045 -0.549283,-0.294669 -1.157593,-0.369387 -1.602256,-0.852656 -0.135604,-0.147371 -0.340608,-0.638357 -0.608018,-0.509831 m -10.6686937,2.68988 c 1.9077747,0.976261 4.3600027,0.93195 6.4460087,0.93195 3.80737,0 7.952389,0.467474 11.57175,-0.93195 -0.127185,0.645098 -0.481402,1.176504 -0.35914,1.86391 0.149109,0.838367 0.781093,1.225679 1.315753,1.806103 0.462158,0.501714 0.784871,1.126728 1.007568,1.766378 0.913027,2.622468 0.358825,5.66775 -1.345041,7.843938 -0.705534,0.901106 -1.926675,1.875473 -3.104346,2.019228 0.138219,-0.576703 0.803326,-2.065779 0.385131,-2.603077 -0.247992,-0.318619 -0.965704,0.144788 -1.239423,0.257723 -1.397994,0.576855 -2.178933,1.631076 -3.339499,2.50068 -0.0013,-0.724608 -0.07549,-1.461487 -0.198179,-2.174554 -0.03412,-0.198394 -0.05443,-0.665209 -0.346326,-0.665209 -0.288809,0 -0.459081,0.537008 -0.562112,0.742868 -0.412078,0.823395 -0.856698,1.606111 -1.145602,2.485211 h -0.07766 c -0.138889,-1.017899 -0.70551,-1.817181 -1.286702,-2.640533 -0.143433,-0.2032 -0.401094,-0.744888 -0.720099,-0.655321 -0.245621,0.06895 -0.339433,0.450106 -0.421749,0.655321 C 14.738866,34.583297 14.728079,35.248 14.728079,35.985012 13.478281,35.276716 12.261094,34.96043 10.844939,34.723084 10.024011,34.585501 9.1612451,34.299847 9.5246757,35.441374 6.1452609,33.818034 5.2053497,28.859295 6.5756445,25.655871 7.0597003,24.524256 8.2881087,23.923642 8.6592937,22.782342 8.9129545,22.002414 8.295082,21.374063 8.4373943,20.685455 M 16.9803,29.383681 v 0.07766 c -0.313944,0.228531 -0.899654,1.073888 -1.305018,1.019945 -0.44476,-0.0592 -1.010834,-1.447353 -1.523162,-1.026258 -0.54349,0.446708 0.864409,1.266589 0.86343,1.714894 -0.0013,0.534816 -1.242406,1.033945 -0.962658,1.605366 0.319768,0.65317 1.291846,-0.888355 1.680184,-0.839066 0.680568,0.08639 0.955874,1.309104 1.634459,1.500016 0.41607,0.117045 0.462943,-0.34628 0.466723,-0.63541 0.01084,-0.828093 2.44e-4,-1.657023 2.44e-4,-2.485199 l 1.087277,1.087282 0.776624,0.776628 c 0.237617,0.237508 0.515679,0.618413 0.853158,0.713059 0.454425,0.127442 0.45339,-0.375192 0.270998,-0.635409 -0.522775,-0.745828 -1.33521,-1.375875 -1.978443,-2.019218 -0.204789,-0.204828 -0.675713,-0.532848 -0.675713,-0.854292 0,-0.343212 0.533878,-0.712448 0.753376,-0.931955 0.638134,-0.638142 1.713495,-1.41397 2.082034,-2.252219 0.18899,-0.429861 -0.333045,-0.823606 -0.606453,-1.078366 -0.859363,-0.800755 -1.681474,-1.7817 -2.640535,-2.46123 -0.390454,-0.276647 -0.711228,-0.01827 -0.994363,0.280203 -0.670426,0.706732 -1.34511,1.405017 -2.034482,2.094449 -0.266248,0.266274 -0.753915,0.610278 -0.810115,1.009559 -0.05655,0.401761 0.41928,0.756464 0.663706,1.011783 0.751368,0.784825 1.519685,1.687945 2.398627,2.327776 M 7.3500202,22.704672 C 6.2170223,24.273486 5.048361,25.783667 5.0201348,27.830408 3.1308125,25.855024 4.4567281,22.179374 7.3500202,22.704672 M 29.87222,27.830408 h -0.07766 c -0.02822,-2.046741 -1.196892,-3.556922 -2.329886,-5.125736 0.403539,-0.07326 0.834693,-0.12167 1.242605,-0.04849 2.491426,0.447018 2.075833,3.590662 1.164945,5.174217 m -12.81436,-4.116122 c 0.33624,1.490633 0.07766,3.287844 0.07766,4.815094 l -1.786175,-1.708583 -0.509954,-0.698966 0.509954,-0.698964 1.708511,-1.708581 m 0.77663,0 1.78617,1.631178 0.509954,0.698708 -0.509954,0.698961 -1.78617,1.708579 -6.4e-5,-3.339495 6.4e-5,-1.397931 m -0.698966,6.601336 v 1.941569 c -0.885842,-0.741691 -0.966189,-1.238225 0,-1.941569 m -1.553261,3.572484 c 0.354218,0.476235 0.664331,0.962177 0.962168,1.475594 0.365271,0.629656 0.60307,1.522879 0.590152,2.252217 -0.0059,0.331573 -0.09647,0.811264 -0.543321,0.728309 -0.51886,-0.09632 -0.772647,-0.757247 -0.915271,-1.194284 -0.330346,-1.012234 -0.82326,-2.280996 -0.09372,-3.261836 m 8.309919,0 c -0.04135,1.444917 -0.757456,3.017326 -1.680437,4.113959 -0.386768,0.459539 -1.187751,1.057891 -1.808694,0.687103 -0.682378,-0.407476 -0.684285,-1.589426 -0.260364,-2.160527 0.91657,-1.234792 2.26492,-2.218142 3.749495,-2.640535 m -4.73743,0.388313 c 0.01212,0.886808 0.08509,1.753708 0.07791,2.640533 -0.0025,0.312488 0.07871,0.788032 -0.196043,1.012985 -0.536147,0.438965 -1.203072,-0.233634 -1.18742,-0.779995 0.0245,-0.856522 0.72349,-2.265063 1.305544,-2.873523 m -9.1642095,0.854298 c 1.5183035,0.07949 3.7428725,0.382878 4.7498325,1.633037 0.390134,0.48436 0.876047,1.552684 0.446685,2.143008 -0.43967,0.604504 -1.500374,0.406407 -2.090012,0.172201 -1.455572,-0.578163 -2.458086,-2.618618 -3.1065055,-3.948246 m 12.3422975,0.781324 c -0.492511,0.11459 -1.202608,0.872866 -1.539243,1.240004 -0.104467,0.113937 -0.471643,0.63117 -0.06931,0.632887 0.43172,0.0021 1.484849,-1.085531 1.747432,-1.415893 0.138092,-0.173736 0.209211,-0.537991 -0.138889,-0.456998 m -3.60686,0.09246 c -0.279748,0.167843 -0.508524,1.765204 -0.0722,1.514282 0.307611,-0.176897 0.417922,-0.898747 0.406473,-1.219857 -0.0062,-0.176083 -0.117317,-0.424598 -0.334281,-0.294425 m -2.469936,0.241895 c -0.326422,0.188104 0.0078,1.524713 0.360169,1.272387 0.259719,-0.186014 -0.02716,-1.464293 -0.360169,-1.272387 m -4.057783,0.214761 c -0.260725,0.07769 -0.05116,0.378673 0.0616,0.482807 0.463614,0.428115 0.918322,0.833512 1.365642,1.287453 0.117045,0.118782 0.325203,0.37713 0.523162,0.28173 0.273433,-0.131762 -0.06883,-0.537851 -0.169563,-0.664226 -0.293936,-0.368773 -1.208903,-1.558189 -1.780844,-1.387764 m 12.392885,0.611136 0.931952,1.708584 c -0.730217,-0.278053 -1.7349,-0.727151 -2.25222,-1.320268 l 1.320268,-0.388316 m -1.553257,0.776628 0.543639,0.388316 v 0.155327 c -0.820003,0.657649 -0.90445,1.506115 -0.776625,2.485212 -0.763492,-0.239074 -1.739538,-0.74585 -1.630919,-1.63092 0.82674,-0.251146 1.221992,-0.88599 1.863905,-1.39793 m -5.358727,0.310648 c 0.591493,0.461415 1.118553,0.42806 1.786238,0.155327 0.298896,0.464145 0.627068,0.837777 1.164945,1.009619 -0.0655,0.87624 -1.219934,1.123083 -1.941569,0.831987 -0.621744,-0.2508 -1.020443,-0.836505 -1.475594,-1.297968 v -0.07766 l 0.46598,-0.621308 m -5.669383,2.640535 c 0.02602,-0.984961 -0.09359,-1.499708 -0.854293,-2.174555 0.656673,-0.19674 1.20116,0.648908 1.786238,0.891048 0.170458,0.07055 0.634931,0.109424 0.634931,0.363276 0,0.376174 -1.256963,0.823201 -1.566876,0.920231 m 3.88314,-2.252218 c 0.596084,0.382938 1.143417,0.563019 1.47559,1.242604 -1.205452,0.683191 -2.228236,1.410835 -3.261836,0 0.964843,-0.05062 1.394454,-0.38595 1.786246,-1.242604 m 8.387574,1.863905 c -0.07551,-0.156331 -0.340343,-0.602069 -0.482508,-0.217326 -0.226399,0.612739 0.638235,0.809301 1.005146,0.481977 0.458855,-0.40935 0.38371,-1.199141 -0.214359,-1.441655 -0.371911,-0.150815 -0.804421,-0.03783 -1.162566,0.08974 0.470292,-1.093226 2.042045,-0.393199 2.082434,0.621301 0.01021,0.256846 -0.05323,0.540698 -0.155535,0.775807 -0.09462,0.217498 -0.243979,0.398195 -0.453742,0.51324 -0.549405,0.301312 -1.501584,0.119356 -1.623318,-0.590145 -0.09424,-0.549329 0.465798,-1.08167 0.998692,-0.991908 0.511135,0.08609 0.374298,0.599909 0.0058,0.758981 m -12.96971,-1.009639 c -0.88545,-0.275056 -2.1998413,0.748976 -1.159192,1.495746 0.387368,0.277977 1.273725,-0.07561 0.913281,-0.601575 -0.193003,-0.281629 -0.346216,0.125942 -0.375392,0.27077 -0.492518,-0.09895 -0.49909,-0.630165 0.0021,-0.777404 1.009349,-0.296344 1.134496,1.649477 -0.157759,1.543972 -0.188938,-0.01547 -0.376909,-0.06083 -0.541195,-0.158484 C 9.8111575,41.067308 9.6676855,40.910916 9.5745907,40.721557 9.0659909,39.687034 10.476709,38.52419 11.310485,39.402168 Z"
       id="path1" />
  </g>
</svg>
